<?xml version='1.0' encoding='UTF-8' standalone='no'?>
<svg viewBox="0 0 3507 2480" xmlns:xlink="http://www.w3.org/1999/xlink" baseProfile="tiny" version="1.2" width="296.926mm" height="209.973mm" xmlns="http://www.w3.org/2000/svg">
 <defs/>
 <g fill="none" stroke-width="1" fill-rule="evenodd" stroke-linecap="square" stroke-linejoin="bevel" stroke="black">
  <g fill="none" stroke-opacity="1" stroke-width="1" font-family="MS Shell Dlg 2" font-size="32.0388" stroke-linecap="square" transform="matrix(1,0,0,1,0,0)" font-style="normal" stroke-linejoin="bevel" stroke="#000000" font-weight="400"/>
  <g fill="none" stroke-opacity="1" stroke-width="1" font-family="MS Shell Dlg 2" font-size="32.0388" stroke-linecap="square" transform="matrix(1,0,0,1,0,0)" font-style="normal" stroke-linejoin="bevel" stroke="#000000" font-weight="400"/>
  <g fill="none" stroke-opacity="1" stroke-width="1" font-family="MS Shell Dlg 2" font-size="32.0388" stroke-linecap="square" transform="matrix(11.8081,0,0,11.8081,0,0)" font-style="normal" stroke-linejoin="bevel" stroke="#000000" font-weight="400"/>
  <g fill="none" stroke-opacity="1" stroke-width="1" font-family="MS Shell Dlg 2" font-size="32.0388" stroke-linecap="square" transform="matrix(0.999751,0,0,0.999751,0,0)" font-style="normal" stroke-linejoin="bevel" stroke="#000000" font-weight="400"/>
  <g fill="#ffffff" font-family="MS Shell Dlg 2" font-size="32.0388" transform="matrix(0.999751,0,0,0.999751,0,0)" font-style="normal" fill-opacity="1" stroke="none" font-weight="400">
   <path d="M-2,-2 L3510,-2 L3510,2483 L-2,2483 L-2,-2" fill-rule="evenodd" vector-effect="none"/>
  </g>
  <g fill="none" stroke-opacity="1" stroke-width="1" font-family="MS Shell Dlg 2" font-size="32.0388" stroke-linecap="square" transform="matrix(0.999751,0,0,0.999751,0,0)" font-style="normal" stroke-linejoin="bevel" stroke="#000000" font-weight="400"/>
  <g fill="none" stroke-opacity="1" stroke-width="1" font-family="MS Shell Dlg 2" font-size="32.0388" stroke-linecap="square" transform="matrix(11.8081,0,0,11.8081,0,0)" font-style="normal" stroke-linejoin="bevel" stroke="#000000" font-weight="400"/>
  <g fill="none" stroke-opacity="1" stroke-width="1" font-family="MS Shell Dlg 2" font-size="32.0388" stroke-linecap="square" transform="matrix(11.8081,0,0,11.8081,0,0)" font-style="normal" stroke-linejoin="bevel" stroke="#000000" font-weight="400"/>
  <g fill="none" stroke-opacity="1" stroke-width="1" font-family="MS Shell Dlg 2" font-size="32.0388" stroke-linecap="square" transform="matrix(11.8081,0,0,11.8081,0,0)" font-style="normal" stroke-linejoin="bevel" stroke="#000000" font-weight="400"/>
  <g fill="none" stroke-opacity="1" stroke-width="1" font-family="MS Shell Dlg 2" font-size="32.0388" stroke-linecap="square" transform="matrix(11.8081,0,0,11.8081,0,0)" font-style="normal" stroke-linejoin="bevel" stroke="#000000" font-weight="400"/>
  <g fill="none" stroke-opacity="1" stroke-width="1" font-family="MS Shell Dlg 2" font-size="32.0388" stroke-linecap="square" transform="matrix(11.8081,0,0,11.8081,0,0)" font-style="normal" stroke-linejoin="bevel" stroke="#000000" font-weight="400"/>
  <g fill="#ffffff" font-family="MS Shell Dlg 2" font-size="32.0388" transform="matrix(11.8081,0,0,11.8081,0,0)" font-style="normal" fill-opacity="1" stroke="none" font-weight="400">
   <rect y="0" x="0" width="297" height="210"/>
  </g>
  <g fill="none" stroke-opacity="1" stroke-width="1" font-family="MS Shell Dlg 2" font-size="32.0388" stroke-linecap="square" transform="matrix(11.8081,0,0,11.8081,0,0)" font-style="normal" stroke-linejoin="bevel" stroke="#000000" font-weight="400"/>
  <g fill="none" stroke-opacity="1" stroke-width="1" font-family="MS Shell Dlg 2" font-size="32.0388" stroke-linecap="square" transform="matrix(11.8081,0,0,11.8081,0,0)" font-style="normal" stroke-linejoin="bevel" stroke="#000000" font-weight="400"/>
  <g fill="#000000" font-family="MS Shell Dlg 2" font-size="32.0388" transform="matrix(0.999751,0,0,0.999751,0,0)" font-style="normal" fill-opacity="0" stroke="none" font-weight="400">
   <rect y="0" x="0" width="3508" height="2480"/>
  </g>
  <g fill="#a6d96a" stroke-opacity="1" stroke-width="3.07087" font-family="MS Shell Dlg 2" font-size="32.0388" stroke-linecap="square" transform="matrix(0.999751,0,0,0.999751,0,0)" font-style="normal" fill-opacity="1" stroke-linejoin="bevel" stroke="#232323" font-weight="400">
   <path d="M1586.49,1124.29 L1585.68,1103.28 L1601.73,1045.19 L1600.86,1038.96 L1679.53,960.113 L1689.54,944.33 L1692.36,950.847 L1694.14,954.941 L1707.89,986.417 L1751.46,1086.8 L1727.75,1102.38 L1690.76,1119.02 L1691.88,1122.74 L1661.35,1134.19 L1660.78,1117.82 L1648.2,1123.74 L1667.85,1170.82 L1676.07,1197.57 L1668.04,1209.38 L1679.27,1208.67 L1686.27,1226.88 L1688.49,1236.47 L1684.23,1232.82 L1667.7,1236.59 L1691.13,1266.92 L1696.16,1275.96 L1689.04,1274.69 L1687.61,1270.33 L1660.63,1239.41 L1635.67,1196.18 L1590.06,1135.59 L1586.49,1124.29" fill-rule="evenodd" vector-effect="none"/>
  </g>
  <g fill="#ffffc0" stroke-opacity="1" stroke-width="3.07087" font-family="MS Shell Dlg 2" font-size="32.0388" stroke-linecap="square" transform="matrix(0.999751,0,0,0.999751,0,0)" font-style="normal" fill-opacity="1" stroke-linejoin="bevel" stroke="#232323" font-weight="400">
   <path d="M1691.83,1254.04 L1735.34,1234.72 L1745.71,1258.2 L1753.15,1276.14 L1759.37,1291.07 L1766.07,1307.29 L1771.16,1319.92 L1754.25,1327.02 L1742.44,1298.13 L1728.98,1265.22 L1704.57,1276.08 L1702.97,1276.48 L1698.75,1276.45 L1695.57,1270.8 L1691.83,1254.04" fill-rule="evenodd" vector-effect="none"/>
  </g>
  <g fill="#d7191c" stroke-opacity="1" stroke-width="3.07087" font-family="MS Shell Dlg 2" font-size="32.0388" stroke-linecap="square" transform="matrix(0.999751,0,0,0.999751,0,0)" font-style="normal" fill-opacity="1" stroke-linejoin="bevel" stroke="#232323" font-weight="400">
   <path d="M1483.53,1262.01 L1512.92,1247.97 L1523.87,1250.6 L1554.49,1267.35 L1567.81,1282.94 L1592.79,1293.76 L1611.66,1287.17 L1616.1,1293.46 L1643.63,1277.2 L1640.34,1269.95 L1652.7,1269.69 L1657.09,1268.72 L1689.04,1274.69 L1671.01,1298.66 L1672.87,1307.96 L1703.69,1325.93 L1709.05,1345.55 L1691.94,1352.57 L1677.57,1338.54 L1661.26,1335.86 L1645.73,1340.56 L1613.36,1350.41 L1587.37,1358.17 L1582.22,1359.71 L1585.85,1372.09 L1581.13,1373.85 L1573.25,1381.63 L1566.79,1392.73 L1564.51,1373.27 L1553.79,1366.31 L1539.29,1365.24 L1527.84,1357.63 L1516.09,1333.07 L1483.53,1262.01" fill-rule="evenodd" vector-effect="none"/>
   <path d="M1582.22,1359.71 L1587.37,1358.17 L1613.36,1350.41 L1645.73,1340.56 L1661.26,1335.86 L1677.57,1338.54 L1691.94,1352.57 L1683.73,1357.89 L1649.81,1368.79 L1642.71,1365.82 L1630.64,1370.58 L1596.53,1386.14 L1585.85,1372.09 L1582.22,1359.71" fill-rule="evenodd" vector-effect="none"/>
  </g>
  <g fill="#ffffc0" stroke-opacity="1" stroke-width="3.07087" font-family="MS Shell Dlg 2" font-size="32.0388" stroke-linecap="square" transform="matrix(0.999751,0,0,0.999751,0,0)" font-style="normal" fill-opacity="1" stroke-linejoin="bevel" stroke="#232323" font-weight="400">
   <path d="M1771.16,1319.92 L1787.26,1313.29 L1793.25,1328.3 L1800.28,1326.39 L1792.64,1311.22 L1816.46,1306.23 L1821.18,1305.07 L1841.45,1299.88 L1850.79,1335.11 L1832.92,1339.78 L1830.97,1340.28 L1806.39,1346.46 L1781.98,1352.8 L1776.49,1332.78 L1771.16,1319.92" fill-rule="evenodd" vector-effect="none"/>
  </g>
  <g fill="#fdae61" stroke-opacity="1" stroke-width="3.07087" font-family="MS Shell Dlg 2" font-size="32.0388" stroke-linecap="square" transform="matrix(0.999751,0,0,0.999751,0,0)" font-style="normal" fill-opacity="1" stroke-linejoin="bevel" stroke="#232323" font-weight="400">
   <path d="M1623.97,1541.73 L1644.92,1513.14 L1653.03,1499.41 L1665.8,1492.23 L1695.22,1476.53 L1698.34,1460.18 L1699.56,1456.3 L1713.25,1465.41 L1739.79,1473.91 L1736.09,1502.18 L1729.13,1544.1 L1729.04,1566.63 L1700.39,1581.76 L1650.57,1604.78 L1644.75,1590.97 L1623.97,1541.73" fill-rule="evenodd" vector-effect="none"/>
  </g>
  <g fill="#ffffc0" stroke-opacity="1" stroke-width="3.07087" font-family="MS Shell Dlg 2" font-size="32.0388" stroke-linecap="square" transform="matrix(0.999751,0,0,0.999751,0,0)" font-style="normal" fill-opacity="1" stroke-linejoin="bevel" stroke="#232323" font-weight="400">
   <path d="M1785.1,1364.88 L1781.98,1352.8 L1806.39,1346.46 L1809.49,1358.37 L1812.97,1371.56 L1813.69,1374.27 L1825.87,1419.73 L1812.29,1423.18 L1801.31,1426.12 L1789.22,1380.73 L1785.1,1364.88" fill-rule="evenodd" vector-effect="none"/>
  </g>
  <g fill="#d7191c" stroke-opacity="1" stroke-width="3.07087" font-family="MS Shell Dlg 2" font-size="32.0388" stroke-linecap="square" transform="matrix(0.999751,0,0,0.999751,0,0)" font-style="normal" fill-opacity="1" stroke-linejoin="bevel" stroke="#232323" font-weight="400">
   <path d="M1671.01,1298.66 L1689.04,1274.69 L1696.16,1275.96 L1698.75,1276.45 L1702.97,1276.48 L1704.57,1276.08 L1728.98,1265.22 L1742.44,1298.13 L1754.25,1327.02 L1758.6,1337.46 L1771.34,1386.13 L1775.65,1402.61 L1762.56,1406.11 L1770.09,1434.36 L1758.82,1437.56 L1756.25,1458.04 L1746.52,1462.91 L1740.88,1461.82 L1736.67,1429.63 L1726.19,1413.98 L1718.92,1404.56 L1709.05,1345.55 L1703.69,1325.93 L1672.87,1307.96 L1671.01,1298.66" fill-rule="evenodd" vector-effect="none"/>
   <path d="M1759.37,1291.07 L1805.53,1271.98 L1828.12,1262.55 L1837.29,1284.88 L1841.45,1299.88 L1821.18,1305.07 L1816.46,1306.23 L1792.64,1311.22 L1800.28,1326.39 L1793.25,1328.3 L1787.26,1313.29 L1771.16,1319.92 L1766.07,1307.29 L1759.37,1291.07" fill-rule="evenodd" vector-effect="none"/>
  </g>
  <g fill="#fdae61" stroke-opacity="1" stroke-width="3.07087" font-family="MS Shell Dlg 2" font-size="32.0388" stroke-linecap="square" transform="matrix(0.999751,0,0,0.999751,0,0)" font-style="normal" fill-opacity="1" stroke-linejoin="bevel" stroke="#232323" font-weight="400">
   <path d="M1762.56,1406.11 L1775.65,1402.61 L1771.34,1386.13 L1758.6,1337.46 L1754.25,1327.02 L1771.16,1319.92 L1776.49,1332.78 L1781.98,1352.8 L1785.1,1364.88 L1789.22,1380.73 L1801.31,1426.12 L1770.09,1434.36 L1762.56,1406.11" fill-rule="evenodd" vector-effect="none"/>
  </g>
  <g fill="#d7191c" stroke-opacity="1" stroke-width="3.07087" font-family="MS Shell Dlg 2" font-size="32.0388" stroke-linecap="square" transform="matrix(0.999751,0,0,0.999751,0,0)" font-style="normal" fill-opacity="1" stroke-linejoin="bevel" stroke="#232323" font-weight="400">
   <path d="M1667.7,1236.59 L1684.23,1232.82 L1688.49,1236.47 L1686.27,1226.88 L1679.27,1208.67 L1668.04,1209.38 L1676.07,1197.57 L1667.85,1170.82 L1648.2,1123.74 L1660.78,1117.82 L1661.35,1134.19 L1691.88,1122.74 L1690.76,1119.02 L1727.75,1102.38 L1751.46,1086.8 L1764.46,1119.84 L1778.94,1119.43 L1773.89,1132.33 L1770.92,1139.15 L1764.21,1159.61 L1761.87,1184.31 L1759.94,1192.74 L1748.01,1229.43 L1741.33,1232.24 L1735.34,1234.72 L1691.83,1254.04 L1695.57,1270.8 L1698.75,1276.45 L1696.16,1275.96 L1691.13,1266.92 L1667.7,1236.59" fill-rule="evenodd" vector-effect="none"/>
   <path d="M1824.19,1119.02 L1847.05,1118.86 L1895.07,1118.61 L2078.07,1117.7 L2104.92,1117.59 L2106.14,1119.71 L2110.09,1128.6 L2039.3,1192.31 L2013.57,1244.68 L2010.44,1269.77 L2010.06,1269.87 L2006.37,1270.85 L1997.94,1260.5 L1984.87,1255.26 L1920.52,1245.9 L1919.52,1245.53 L1902.64,1233.59 L1874.6,1175.85 L1853.83,1147.5 L1824.19,1119.02" fill-rule="evenodd" vector-effect="none"/>
   <path d="M636.726,1138.4 L849.342,1045.08 L853.816,1052.75 L884.433,1080.54 L881.095,1093.86 L875.229,1149.64 L879.725,1162.19 L906.878,1200.3 L910.636,1248.23 L915.342,1283.38 L930.687,1335.47 L938.951,1352.35 L948.96,1358.57 L950.654,1364.72 L958.993,1368.73 L1003.32,1361.27 L1020.87,1361.16 L1044.74,1352.49 L1075.23,1353.03 L1079.36,1353.55 L1095.02,1352.29 L1098.57,1350.48 L1111.88,1378.82 L1126.24,1392.35 L1145.83,1417.83 L1175.74,1439.87 L1181.8,1457.93 L1195.29,1483.21 L1223.2,1500.11 L1240.79,1516.65 L1250.93,1536.95 L1267.32,1562.76 L1277.47,1584.57 L1282.94,1604.28 L944.074,1749.73 L848.842,1550.96 L779.013,1414.93 L751.061,1362.05 L743.206,1355.24 L725.089,1356.17 L720.121,1362.28 L706.576,1363.63 L694.815,1355.66 L697.794,1331.8 L694.064,1296.3 L713.312,1286.34 L636.726,1138.4" fill-rule="evenodd" vector-effect="none"/>
   <path d="M985.693,1846.37 L1030.56,1846.9 L1039.02,1843.17 L1067.55,1820.1 L1086.78,1810.1 L1122.08,1780.71 L1134.64,1766.73 L1145,1761.84 L1160.54,1761.54 L1172.71,1757.2 L1180.5,1748.65 L1202.07,1745.94 L1227.12,1732.19 L1247.49,1724.48 L1267.82,1707.63 L1277.91,1702.3 L1326.64,1684.34 L1351.37,1673.38 L1368.99,1689.73 L1389.07,1701.08 L1409.73,1719.81 L1434,1736.99 L1466.23,1780.28 L1483.66,1807.25 L1488.77,1820.74 L1491.34,1827.19 L1507.46,1860.21 L1520.94,1891.81 L1548.21,1916.52 L1552.57,1930.58 L1592.83,1996.5 L1603.45,2017.65 L1615.94,2034.67 L1618.18,2053.83 L1625.72,2089.96 L1640.51,2105.68 L1612.65,2118.57 L1345.87,2240.5 L1318.57,2182.38 L1187.27,1898.65 L1037.25,1966.99 L985.693,1846.37" fill-rule="evenodd" vector-effect="none"/>
  </g>
  <g fill="#a6d96a" stroke-opacity="1" stroke-width="3.07087" font-family="MS Shell Dlg 2" font-size="32.0388" stroke-linecap="square" transform="matrix(0.999751,0,0,0.999751,0,0)" font-style="normal" fill-opacity="1" stroke-linejoin="bevel" stroke="#232323" font-weight="400">
   <path d="M1539.14,1129.78 L1536.62,1072.49 L1539.96,1052.91 L1559.09,1016.27 L1562.91,1020.05 L1582.2,1022.65 L1586.91,1024.56 L1600.86,1038.96 L1601.73,1045.19 L1585.68,1103.28 L1586.49,1124.29 L1590.06,1135.59 L1635.67,1196.18 L1660.63,1239.41 L1687.61,1270.33 L1689.04,1274.69 L1657.09,1268.72 L1652.7,1269.69 L1647.42,1255.46 L1635.23,1235.6 L1614.78,1212.24 L1566.96,1179.83 L1551.73,1165.37 L1542.5,1147.77 L1539.14,1129.78" fill-rule="evenodd" vector-effect="none"/>
  </g>
  <g fill="#d7191c" stroke-opacity="1" stroke-width="3.07087" font-family="MS Shell Dlg 2" font-size="32.0388" stroke-linecap="square" transform="matrix(0.999751,0,0,0.999751,0,0)" font-style="normal" fill-opacity="1" stroke-linejoin="bevel" stroke="#232323" font-weight="400">
   <path d="M1853.8,1346.63 L1850.79,1335.11 L1841.45,1299.88 L1880.99,1286.99 L1890.67,1276.23 L1912.7,1316.22 L1918.72,1334.57 L1922.36,1344.08 L1914.8,1346.92 L1886.14,1354.68 L1857.9,1362.27 L1853.8,1346.63" fill-rule="evenodd" vector-effect="none"/>
  </g>
  <g fill="#ffffc0" stroke-opacity="1" stroke-width="3.07087" font-family="MS Shell Dlg 2" font-size="32.0388" stroke-linecap="square" transform="matrix(0.999751,0,0,0.999751,0,0)" font-style="normal" fill-opacity="1" stroke-linejoin="bevel" stroke="#232323" font-weight="400">
   <path d="M1857.9,1362.27 L1886.14,1354.68 L1914.8,1346.92 L1922.36,1344.08 L1936.72,1379.35 L1941.51,1387.84 L1946.85,1396.54 L1928.3,1392.51 L1908.13,1397.98 L1870.07,1408.05 L1869.22,1404.99 L1862.59,1379.71 L1857.9,1362.27" fill-rule="evenodd" vector-effect="none"/>
  </g>
  <g fill="#1a9641" stroke-opacity="1" stroke-width="3.07087" font-family="MS Shell Dlg 2" font-size="32.0388" stroke-linecap="square" transform="matrix(0.999751,0,0,0.999751,0,0)" font-style="normal" fill-opacity="1" stroke-linejoin="bevel" stroke="#232323" font-weight="400">
   <path d="M1672.22,1447.47 L1672.68,1435.7 L1670.45,1430.57 L1700.92,1417.52 L1702.36,1422.46 L1703.08,1424.83 L1705.18,1432.75 L1708.9,1429.31 L1716.06,1421.47 L1726.19,1413.98 L1736.67,1429.63 L1740.88,1461.82 L1739.79,1473.91 L1713.25,1465.41 L1699.56,1456.3 L1670.7,1455.35 L1672.22,1447.47" fill-rule="evenodd" vector-effect="none"/>
  </g>
  <g fill="#ffffc0" stroke-opacity="1" stroke-width="3.07087" font-family="MS Shell Dlg 2" font-size="32.0388" stroke-linecap="square" transform="matrix(0.999751,0,0,0.999751,0,0)" font-style="normal" fill-opacity="1" stroke-linejoin="bevel" stroke="#232323" font-weight="400">
   <path d="M1813.43,1490.54 L1821.32,1491.01 L1829.69,1488.87 L1879.24,1472.89 L1886.56,1470.22 L1917.73,1459.23 L1924.21,1458.62 L1937.39,1457.47 L1982.28,1438.6 L1995.94,1448.58 L2009.86,1464.03 L2047.31,1515.94 L2056.33,1520.77 L2008.71,1549.59 L1990.4,1561.88 L1968.75,1579.52 L1945.75,1599.14 L1953.82,1591.44 L1925.2,1613.81 L1909.87,1600.03 L1881.46,1571.61 L1873.21,1561.48 L1861.35,1547.87 L1857.71,1544.32 L1810.23,1490.01 L1813.43,1490.54" fill-rule="evenodd" vector-effect="none"/>
  </g>
  <g fill="#d7191c" stroke-opacity="1" stroke-width="3.07087" font-family="MS Shell Dlg 2" font-size="32.0388" stroke-linecap="square" transform="matrix(0.999751,0,0,0.999751,0,0)" font-style="normal" fill-opacity="1" stroke-linejoin="bevel" stroke="#232323" font-weight="400">
   <path d="M1982.4,1904.7 L2012.09,1893.4 L2055.71,1890.71 L2083.33,1893.18 L2109.36,1892 L2120.14,1886.75 L2124.5,1877.67 L2120.12,1845.35 L2100.14,1807.18 L2081.64,1766.67 L2075.24,1742.05 L2292.12,1647.65 L2294.45,1646.66 L2340.29,1626.6 L2314.76,1569.47 L2494.51,1565.14 L2606.02,1836.17 L2623.38,1878.67 L2666.53,1994.75 L2642.41,2022.19 L2628.17,2030.96 L2607.28,2008.88 L2537.53,1959.22 L2516.8,1940.92 L2500.97,1921.75 L2477.96,1888.71 L2472.26,1893.31 L2448.82,1927.63 L2438.3,1935.46 L2416.77,1942.69 L2380.33,1960.77 L2359.11,1957.24 L2320.1,1985.25 L2288.39,1993.37 L2275.08,2002.88 L2261.96,2004.75 L2226.85,1996.06 L2212.5,1998.09 L2198.71,2002.3 L2163.49,2004.1 L2130.7,1999.29 L2106.02,2009.86 L2088.72,2025.76 L2070.91,2036.62 L2062.18,2048.14 L2049.25,2055.9 L1982.4,1904.7" fill-rule="evenodd" vector-effect="none"/>
   <path d="M1761.87,1184.31 L1764.21,1159.61 L1770.92,1139.15 L1773.89,1132.33 L1778.94,1119.43 L1819.56,1119.01 L1824.19,1119.02 L1853.83,1147.5 L1874.6,1175.85 L1902.64,1233.59 L1919.52,1245.53 L1890.67,1276.23 L1880.99,1286.99 L1841.45,1299.88 L1837.29,1284.88 L1828.12,1262.55 L1812.45,1226.65 L1803.31,1206.46 L1779.39,1159.7 L1778.55,1161.11 L1770.39,1187.3 L1761.87,1184.31" fill-rule="evenodd" vector-effect="none"/>
   <path d="M1890.67,1276.23 L1919.52,1245.53 L1920.52,1245.9 L1984.87,1255.26 L1997.94,1260.5 L2006.37,1270.85 L2010.06,1269.87 L2010.44,1269.77 L2016.34,1297.49 L2015.64,1301.56 L2019.18,1315.71 L2022.44,1326.96 L2028.8,1345.94 L2073.97,1455.41 L2084.86,1477.04 L2121.36,1519.52 L2150.44,1547.02 L2121.33,1522.17 L2112.27,1518.19 L2073.16,1514.4 L2056.33,1520.77 L2047.31,1515.94 L2009.86,1464.03 L1995.94,1448.58 L1982.28,1438.6 L1971.03,1429.68 L1963.6,1420.96 L1949.31,1400.96 L1946.85,1396.54 L1941.51,1387.84 L1936.72,1379.35 L1922.36,1344.08 L1918.72,1334.57 L1912.7,1316.22 L1890.67,1276.23" fill-rule="evenodd" vector-effect="none"/>
  </g>
  <g fill="#1a9641" stroke-opacity="1" stroke-width="3.07087" font-family="MS Shell Dlg 2" font-size="32.0388" stroke-linecap="square" transform="matrix(0.999751,0,0,0.999751,0,0)" font-style="normal" fill-opacity="1" stroke-linejoin="bevel" stroke="#232323" font-weight="400">
   <path d="M1809.49,1358.37 L1806.39,1346.46 L1830.97,1340.28 L1832.92,1339.78 L1850.79,1335.11 L1853.8,1346.63 L1857.9,1362.27 L1862.59,1379.71 L1869.22,1404.99 L1870.07,1408.05 L1852.23,1412.74 L1825.87,1419.73 L1813.69,1374.27 L1812.97,1371.56 L1809.49,1358.37" fill-rule="evenodd" vector-effect="none"/>
  </g>
  <g fill="#d7191c" stroke-opacity="1" stroke-width="3.07087" font-family="MS Shell Dlg 2" font-size="32.0388" stroke-linecap="square" transform="matrix(0.999751,0,0,0.999751,0,0)" font-style="normal" fill-opacity="1" stroke-linejoin="bevel" stroke="#232323" font-weight="400">
   <path d="M1827.55,1480.94 L1840.92,1477.42 L1835.63,1456.79 L1848.04,1453.47 L1860.28,1443.03 L1852.23,1412.74 L1870.07,1408.05 L1908.13,1397.98 L1928.3,1392.51 L1946.85,1396.54 L1949.31,1400.96 L1963.6,1420.96 L1971.03,1429.68 L1982.28,1438.6 L1937.39,1457.47 L1924.21,1458.62 L1917.73,1459.23 L1886.56,1470.22 L1879.24,1472.89 L1829.69,1488.87 L1827.55,1480.94" fill-rule="evenodd" vector-effect="none"/>
  </g>
  <g fill="#fdae61" stroke-opacity="1" stroke-width="3.07087" font-family="MS Shell Dlg 2" font-size="32.0388" stroke-linecap="square" transform="matrix(0.999751,0,0,0.999751,0,0)" font-style="normal" fill-opacity="1" stroke-linejoin="bevel" stroke="#232323" font-weight="400">
   <path d="M1744.28,1527.35 L1746.65,1504.25 L1736.09,1502.18 L1739.79,1473.91 L1740.88,1461.82 L1746.52,1462.91 L1756.25,1458.04 L1758.82,1437.56 L1770.09,1434.36 L1801.31,1426.12 L1812.29,1423.18 L1825.87,1419.73 L1852.23,1412.74 L1860.28,1443.03 L1848.04,1453.47 L1835.63,1456.79 L1840.92,1477.42 L1827.55,1480.94 L1829.69,1488.87 L1821.32,1491.01 L1813.43,1490.54 L1810.23,1490.01 L1800.18,1489.02 L1785.38,1492.8 L1778.17,1494.82 L1770.16,1498.1 L1768.03,1518.85 L1776.94,1541.09 L1746.61,1555.23 L1744.28,1527.35" fill-rule="evenodd" vector-effect="none"/>
   <path d="M1729.13,1544.1 L1736.09,1502.18 L1746.65,1504.25 L1744.28,1527.35 L1746.61,1555.23 L1776.94,1541.09 L1768.03,1518.85 L1770.16,1498.1 L1778.17,1494.82 L1785.38,1492.8 L1800.18,1489.02 L1810.23,1490.01 L1857.71,1544.32 L1861.35,1547.87 L1873.21,1561.48 L1881.46,1571.61 L1909.87,1600.03 L1925.2,1613.81 L1898.54,1638.5 L1882.12,1664.79 L1867.68,1681.38 L1851.87,1690.45 L1836.67,1676.9 L1823.91,1670.74 L1806.86,1667.15 L1778.72,1652.72 L1770.05,1642.18 L1760.45,1621.24 L1729.04,1566.63 L1729.13,1544.1" fill-rule="evenodd" vector-effect="none"/>
  </g>
  <g fill="#ffffc0" stroke-opacity="1" stroke-width="3.07087" font-family="MS Shell Dlg 2" font-size="32.0388" stroke-linecap="square" transform="matrix(0.999751,0,0,0.999751,0,0)" font-style="normal" fill-opacity="1" stroke-linejoin="bevel" stroke="#232323" font-weight="400">
   <path d="M1851.87,1690.45 L1867.68,1681.38 L1882.12,1664.79 L1898.54,1638.5 L1925.2,1613.81 L1953.82,1591.44 L1945.75,1599.14 L1968.75,1579.52 L1990.4,1561.88 L2008.71,1549.59 L2056.33,1520.77 L2073.16,1514.4 L2112.27,1518.19 L2121.33,1522.17 L2150.44,1547.02 L2156.85,1552.26 L2272.76,1623.14 L2294.45,1646.66 L2292.12,1647.65 L2075.24,1742.05 L2075.16,1742.07 L2069.5,1728.88 L2035.48,1690.68 L2038.16,1681.44 L2048.44,1675.36 L2042.04,1661.84 L2027.95,1656.28 L2007.51,1658.12 L1992.23,1633.94 L1975.34,1637.19 L1960.45,1647.54 L1974.45,1661.33 L1967.6,1676.54 L1977.88,1679.54 L1964.63,1685.49 L1969.72,1689.04 L1961.21,1708.43 L1968.77,1714.6 L1947.61,1715.29 L1926.55,1729.83 L1942.98,1742.63 L1934.41,1759.58 L1939.65,1770.44 L1935.27,1783.03 L1937.94,1795.39 L1944.77,1798.44 L1938.12,1805.52 L1982.4,1904.7 L2049.25,2055.9 L2068.37,2097.94 L1978.17,2006 L1969.74,1955.29 L1944.17,1892.73 L1931.59,1830.73 L1912.97,1802.02 L1901.93,1776.35 L1875.89,1741.86 L1853.14,1692.03 L1851.87,1690.45" fill-rule="evenodd" vector-effect="none"/>
  </g>
  <g fill="#d7191c" stroke-opacity="1" stroke-width="3.07087" font-family="MS Shell Dlg 2" font-size="32.0388" stroke-linecap="square" transform="matrix(0.999751,0,0,0.999751,0,0)" font-style="normal" fill-opacity="1" stroke-linejoin="bevel" stroke="#232323" font-weight="400">
   <path d="M1735.34,1234.72 L1741.33,1232.24 L1748.01,1229.43 L1759.94,1192.74 L1761.87,1184.31 L1770.39,1187.3 L1778.55,1161.11 L1779.39,1159.7 L1803.31,1206.46 L1812.45,1226.65 L1828.12,1262.55 L1805.53,1271.98 L1759.37,1291.07 L1753.15,1276.14 L1745.71,1258.2 L1735.34,1234.72" fill-rule="evenodd" vector-effect="none"/>
  </g>
  <g fill="#1a9641" stroke-opacity="1" stroke-width="3.07087" font-family="MS Shell Dlg 2" font-size="32.0388" stroke-linecap="square" transform="matrix(0.999751,0,0,0.999751,0,0)" font-style="normal" fill-opacity="1" stroke-linejoin="bevel" stroke="#232323" font-weight="400">
   <path d="M1357.32,986.168 L1483.9,935.135 L1525.27,986.591 L1534.79,1003.87 L1559.09,1016.27 L1539.96,1052.91 L1536.62,1072.49 L1539.14,1129.78 L1542.5,1147.77 L1551.73,1165.37 L1566.96,1179.83 L1614.78,1212.24 L1635.23,1235.6 L1647.42,1255.46 L1652.7,1269.69 L1640.34,1269.95 L1643.63,1277.2 L1616.1,1293.46 L1611.66,1287.17 L1592.79,1293.76 L1567.81,1282.94 L1554.49,1267.35 L1523.87,1250.6 L1512.92,1247.97 L1483.53,1262.01 L1431.4,1147.99 L1357.32,986.168" fill-rule="evenodd" vector-effect="none"/>
  </g>
  <g fill="#d7191c" stroke-opacity="1" stroke-width="3.07087" font-family="MS Shell Dlg 2" font-size="32.0388" stroke-linecap="square" transform="matrix(0.999751,0,0,0.999751,0,0)" font-style="normal" fill-opacity="1" stroke-linejoin="bevel" stroke="#232323" font-weight="400">
   <path d="M875.229,1149.64 L881.095,1093.86 L884.433,1080.54 L853.816,1052.75 L849.342,1045.08 L1146.82,912.353 L1292.52,845.814 L1357.32,986.168 L1431.4,1147.99 L1483.53,1262.01 L1516.09,1333.07 L1527.84,1357.63 L1490.16,1340.65 L1483.66,1331.75 L1448.78,1323 L1435.09,1316 L1403.31,1286.05 L1398.86,1275.99 L1378.92,1272.24 L1360.01,1261.94 L1347.81,1277.47 L1340.77,1306.18 L1324.55,1298.57 L1309.47,1312.2 L1288.9,1303.51 L1253.46,1308.92 L1249.47,1303.84 L1252.83,1288.86 L1246.76,1287.06 L1220.53,1291.92 L1212.1,1296.93 L1174.07,1306.31 L1155.98,1315.99 L1141.64,1312.9 L1117.21,1316.83 L1089.37,1337.07 L1095.02,1352.29 L1079.36,1353.55 L1075.23,1353.03 L1044.74,1352.49 L1020.87,1361.16 L1003.32,1361.27 L958.993,1368.73 L950.654,1364.72 L948.96,1358.57 L938.951,1352.35 L930.687,1335.47 L915.342,1283.38 L910.636,1248.23 L906.878,1200.3 L879.725,1162.19 L875.229,1149.64" fill-rule="evenodd" vector-effect="none"/>
   <path d="M1089.37,1337.07 L1117.21,1316.83 L1141.64,1312.9 L1155.98,1315.99 L1174.07,1306.31 L1212.1,1296.93 L1220.53,1291.92 L1246.76,1287.06 L1252.83,1288.86 L1249.47,1303.84 L1253.46,1308.92 L1288.9,1303.51 L1309.47,1312.2 L1324.55,1298.57 L1340.77,1306.18 L1347.81,1277.47 L1360.01,1261.94 L1378.92,1272.24 L1398.86,1275.99 L1403.31,1286.05 L1435.09,1316 L1448.78,1323 L1483.66,1331.75 L1490.16,1340.65 L1527.84,1357.63 L1533.15,1368.62 L1560.15,1425.21 L1567.87,1441.52 L1582.72,1473.05 L1552.98,1484.65 L1459.99,1526.41 L1282.94,1604.28 L1277.47,1584.57 L1267.32,1562.76 L1250.93,1536.95 L1240.79,1516.65 L1223.2,1500.11 L1195.29,1483.21 L1181.8,1457.93 L1175.74,1439.87 L1145.83,1417.83 L1126.24,1392.35 L1111.88,1378.82 L1098.57,1350.48 L1095.02,1352.29 L1089.37,1337.07" fill-rule="evenodd" vector-effect="none"/>
   <path d="M1516.17,515.724 L1518.4,490.003 L1527.71,472.481 L1555.29,392.661 L1540.46,367.642 L1613.73,366.911 L1757.06,364.438 L2118.09,357.143 L2083.19,619.895 L2047.38,874.453 L2045.2,888.728 L1987.32,890.745 L1982.27,890.956 L2014.57,947.408 L2043.84,1003.36 L2067.89,1065.5 L2104.92,1117.59 L2078.07,1117.7 L2040.1,1072.02 L1998.16,1038.55 L1985.87,1025.02 L1967.93,998.019 L1950.74,967.53 L1939.34,951.602 L1924.86,941.747 L1881.39,921.98 L1808.93,878.079 L1776.86,860.167 L1757.1,849.409 L1696.9,771.894 L1653.12,732.206 L1632.96,724.995 L1609.48,699.265 L1594.75,681.629 L1576.74,646.605 L1576.64,630.098 L1593.33,605.076 L1598.23,585.698 L1598.52,566.794 L1595.19,550.554 L1597.57,522.972 L1562.41,525.146 L1550.06,521.437 L1542.08,524.419 L1520.97,520.464 L1516.17,515.724" fill-rule="evenodd" vector-effect="none"/>
   <path d="M1527.84,1357.63 L1539.29,1365.24 L1553.79,1366.31 L1564.51,1373.27 L1566.79,1392.73 L1574.93,1401.54 L1609.41,1417.73 L1633.06,1416.66 L1650.45,1431.95 L1659.02,1437.29 L1672.22,1447.47 L1670.7,1455.35 L1699.56,1456.3 L1698.34,1460.18 L1695.22,1476.53 L1665.8,1492.23 L1653.03,1499.41 L1644.92,1513.14 L1623.97,1541.73 L1602.02,1489.7 L1593.12,1468.57 L1582.72,1473.05 L1567.87,1441.52 L1560.15,1425.21 L1533.15,1368.62 L1527.84,1357.63" fill-rule="evenodd" vector-effect="none"/>
   <path d="M1292.52,845.814 L1325.97,830.896 L1305.43,784.831 L1414.71,502.059 L1429.39,464.005 L1464.82,372.41 L1467.89,364.231 L1479.5,399.329 L1510.32,386.521 L1526.51,367.859 L1540.46,367.642 L1555.29,392.661 L1527.71,472.481 L1518.4,490.003 L1516.17,515.724 L1520.97,520.464 L1542.08,524.419 L1550.06,521.437 L1562.41,525.146 L1597.57,522.972 L1595.19,550.554 L1598.52,566.794 L1598.23,585.698 L1593.33,605.076 L1576.64,630.098 L1576.74,646.605 L1594.75,681.629 L1609.48,699.265 L1632.96,724.995 L1653.12,732.206 L1696.9,771.894 L1757.1,849.409 L1771.99,868.357 L1782.52,882.697 L1795.32,922.798 L1814.73,948.849 L1807.62,947.146 L1791.75,945.85 L1771.04,952.631 L1742.82,947.955 L1731.18,934.7 L1715.43,930.553 L1712.56,932.706 L1714.94,939.628 L1707.89,986.417 L1694.14,954.941 L1692.36,950.847 L1689.54,944.33 L1679.53,960.113 L1600.86,1038.96 L1586.91,1024.56 L1582.2,1022.65 L1562.91,1020.05 L1559.09,1016.27 L1534.79,1003.87 L1525.27,986.591 L1483.9,935.135 L1357.32,986.168 L1292.52,845.814" fill-rule="evenodd" vector-effect="none"/>
   <path d="M1707.89,986.417 L1714.94,939.628 L1712.56,932.706 L1715.43,930.553 L1731.18,934.7 L1742.82,947.955 L1771.04,952.631 L1791.75,945.85 L1807.62,947.146 L1814.73,948.849 L1795.32,922.798 L1782.52,882.697 L1771.99,868.357 L1757.1,849.409 L1776.86,860.167 L1808.93,878.079 L1881.39,921.98 L1924.86,941.747 L1939.34,951.602 L1950.74,967.53 L1967.93,998.019 L1985.87,1025.02 L1998.16,1038.55 L2040.1,1072.02 L2078.07,1117.7 L1895.07,1118.61 L1847.05,1118.86 L1824.19,1119.02 L1819.56,1119.01 L1778.94,1119.43 L1764.46,1119.84 L1751.46,1086.8 L1707.89,986.417" fill-rule="evenodd" vector-effect="none"/>
   <path d="M1987.32,890.745 L2045.2,888.728 L2047.38,874.453 L2427.86,873.676 L2657.38,872.58 L2671.92,966.638 L2682.71,1116.34 L2680.47,1180.72 L2704.45,1178.67 L2705.19,1281.97 L2696.09,1282.99 L2704.79,1559.13 L2494.75,1565.14 L2494.51,1565.14 L2314.76,1569.47 L2243.57,1412.38 L2130.38,1171.4 L2123.76,1157.84 L2110.09,1128.6 L2106.14,1119.71 L2104.92,1117.59 L2067.89,1065.5 L2043.84,1003.36 L2014.57,947.408 L1982.27,890.956 L1987.32,890.745" fill-rule="evenodd" vector-effect="none"/>
  </g>
  <g fill="#fdae61" stroke-opacity="1" stroke-width="3.07087" font-family="MS Shell Dlg 2" font-size="32.0388" stroke-linecap="square" transform="matrix(0.999751,0,0,0.999751,0,0)" font-style="normal" fill-opacity="1" stroke-linejoin="bevel" stroke="#232323" font-weight="400">
   <path d="M1507.46,1860.21 L1543.01,1809.82 L1561.49,1779.79 L1562.02,1734.92 L1571.87,1693.65 L1598.76,1655.2 L1606.99,1657.05 L1653.74,1653.99 L1670.15,1654.65 L1681.33,1657.68 L1730.03,1679.15 L1785.11,1694.79 L1810.89,1702.15 L1822.02,1703.59 L1831.46,1701.61 L1851.87,1690.45 L1853.14,1692.03 L1875.89,1741.86 L1901.93,1776.35 L1912.97,1802.02 L1931.59,1830.73 L1944.17,1892.73 L1969.74,1955.29 L1909.23,1983.11 L1713.22,2072.47 L1640.51,2105.68 L1625.72,2089.96 L1618.18,2053.83 L1615.94,2034.67 L1603.45,2017.65 L1592.83,1996.5 L1552.57,1930.58 L1548.21,1916.52 L1520.94,1891.81 L1507.46,1860.21" fill-rule="evenodd" vector-effect="none"/>
   <path d="M2015.64,1301.56 L2016.34,1297.49 L2010.44,1269.77 L2013.57,1244.68 L2039.3,1192.31 L2110.09,1128.6 L2123.76,1157.84 L2130.38,1171.4 L2243.57,1412.38 L2314.76,1569.47 L2340.29,1626.6 L2294.45,1646.66 L2272.76,1623.14 L2156.85,1552.26 L2150.44,1547.02 L2121.36,1519.52 L2084.86,1477.04 L2073.97,1455.41 L2028.8,1345.94 L2022.44,1326.96 L2019.18,1315.71 L2015.64,1301.56" fill-rule="evenodd" vector-effect="none"/>
  </g>
  <g fill="#ffffc0" stroke-opacity="1" stroke-width="3.07087" font-family="MS Shell Dlg 2" font-size="32.0388" stroke-linecap="square" transform="matrix(0.999751,0,0,0.999751,0,0)" font-style="normal" fill-opacity="1" stroke-linejoin="bevel" stroke="#232323" font-weight="400">
   <path d="M1566.79,1392.73 L1573.25,1381.63 L1581.13,1373.85 L1585.85,1372.09 L1596.53,1386.14 L1630.64,1370.58 L1642.71,1365.82 L1649.81,1368.79 L1683.73,1357.89 L1691.94,1352.57 L1709.05,1345.55 L1718.92,1404.56 L1726.19,1413.98 L1716.06,1421.47 L1708.9,1429.31 L1705.18,1432.75 L1703.08,1424.83 L1702.36,1422.46 L1700.92,1417.52 L1670.45,1430.57 L1672.68,1435.7 L1672.22,1447.47 L1659.02,1437.29 L1650.45,1431.95 L1633.06,1416.66 L1609.41,1417.73 L1574.93,1401.54 L1566.79,1392.73" fill-rule="evenodd" vector-effect="none"/>
  </g>
  <g fill="#d7191c" stroke-opacity="1" stroke-width="3.07087" font-family="MS Shell Dlg 2" font-size="32.0388" stroke-linecap="square" transform="matrix(0.999751,0,0,0.999751,0,0)" font-style="normal" fill-opacity="1" stroke-linejoin="bevel" stroke="#232323" font-weight="400">
   <path d="M944.074,1749.73 L1282.94,1604.28 L1459.99,1526.41 L1552.98,1484.65 L1582.72,1473.05 L1593.12,1468.57 L1602.02,1489.7 L1623.97,1541.73 L1644.75,1590.97 L1650.57,1604.78 L1700.39,1581.76 L1729.04,1566.63 L1760.45,1621.24 L1770.05,1642.18 L1778.72,1652.72 L1806.86,1667.15 L1823.91,1670.74 L1836.67,1676.9 L1851.87,1690.45 L1831.46,1701.61 L1822.02,1703.59 L1810.89,1702.15 L1785.11,1694.79 L1730.03,1679.15 L1681.33,1657.68 L1670.15,1654.65 L1653.74,1653.99 L1606.99,1657.05 L1598.76,1655.2 L1571.87,1693.65 L1562.02,1734.92 L1561.49,1779.79 L1543.01,1809.82 L1507.46,1860.21 L1491.34,1827.19 L1488.77,1820.74 L1483.66,1807.25 L1466.23,1780.28 L1434,1736.99 L1409.73,1719.81 L1389.07,1701.08 L1368.99,1689.73 L1351.37,1673.38 L1326.64,1684.34 L1277.91,1702.3 L1267.82,1707.63 L1247.49,1724.48 L1227.12,1732.19 L1202.07,1745.94 L1180.5,1748.65 L1172.71,1757.2 L1160.54,1761.54 L1145,1761.84 L1134.64,1766.73 L1122.08,1780.71 L1086.78,1810.1 L1067.55,1820.1 L1039.02,1843.17 L1030.56,1846.9 L985.693,1846.37 L944.074,1749.73" fill-rule="evenodd" vector-effect="none"/>
  </g>
  <g fill="#195987" stroke-opacity="1" stroke-width="1" font-family="MS Shell Dlg 2" font-size="32.0388" stroke-linecap="square" transform="matrix(0.999751,0,0,0.999751,0,0)" font-style="normal" fill-opacity="1" stroke-linejoin="bevel" stroke="#232323" font-weight="400">
   <path d="M1742.9,1353.22 C1742.9,1359.74 1737.61,1365.03 1731.08,1365.03 C1724.56,1365.03 1719.27,1359.74 1719.27,1353.22 C1719.27,1346.69 1724.56,1341.4 1731.08,1341.4 C1737.61,1341.4 1742.9,1346.69 1742.9,1353.22 " fill-rule="evenodd" vector-effect="non-scaling-stroke"/>
  </g>
  <g fill="none" stroke-opacity="1" stroke-width="1" font-family="MS Shell Dlg 2" font-size="32.0388" stroke-linecap="square" transform="matrix(11.8081,0,0,11.8081,0,0)" font-style="normal" stroke-linejoin="bevel" stroke="#000000" font-weight="400"/>
  <g fill="none" stroke-opacity="1" stroke-width="1" font-family="MS Shell Dlg 2" font-size="32.0388" stroke-linecap="square" transform="matrix(11.8081,0,0,11.8081,0,0)" font-style="normal" stroke-linejoin="bevel" stroke="#000000" font-weight="400"/>
  <g fill="none" stroke-opacity="1" stroke-width="1" font-family="MS Shell Dlg 2" font-size="32.0388" stroke-linecap="square" transform="matrix(11.8081,0,0,11.8081,0,0)" font-style="normal" stroke-linejoin="bevel" stroke="#000000" font-weight="400"/>
  <g fill="none" stroke-opacity="1" stroke-width="1" font-family="MS Shell Dlg 2" font-size="32.0388" stroke-linecap="square" transform="matrix(1,0,0,1,0,0)" font-style="normal" stroke-linejoin="bevel" stroke="#000000" font-weight="400"/>
  <g fill="none" stroke-opacity="1" stroke-width="1" font-family="MS Shell Dlg 2" font-size="32.0388" stroke-linecap="square" transform="matrix(11.8081,0,0,11.8081,0,0)" font-style="normal" stroke-linejoin="bevel" stroke="#000000" font-weight="400"/>
  <g fill="none" stroke-opacity="1" stroke-width="1" font-family="MS Shell Dlg 2" font-size="32.0388" stroke-linecap="square" transform="matrix(11.8081,0,0,11.8081,0,0)" font-style="normal" stroke-linejoin="bevel" stroke="#000000" font-weight="400"/>
  <g fill="none" stroke-opacity="1" stroke-width="1" font-family="MS Shell Dlg 2" font-size="32.0388" stroke-linecap="square" transform="matrix(11.8081,0,0,11.8081,286.844,231.232)" font-style="normal" stroke-linejoin="bevel" stroke="#000000" font-weight="400"/>
  <g fill="none" stroke-opacity="1" stroke-width="1" font-family="MS Shell Dlg 2" font-size="32.0388" stroke-linecap="square" transform="matrix(11.8081,0,0,11.8081,286.844,231.232)" font-style="normal" stroke-linejoin="bevel" stroke="#000000" font-weight="400"/>
  <g fill="#ffffff" font-family="MS Shell Dlg 2" font-size="32.0388" transform="matrix(11.8081,0,0,11.8081,286.844,231.232)" font-style="normal" fill-opacity="1" stroke="none" font-weight="400">
   <rect y="0" x="0" width="57.6" height="58"/>
  </g>
  <g fill="none" stroke-opacity="1" stroke-width="1" font-family="MS Shell Dlg 2" font-size="32.0388" stroke-linecap="square" transform="matrix(11.8081,0,0,11.8081,286.844,231.232)" font-style="normal" stroke-linejoin="bevel" stroke="#000000" font-weight="400"/>
  <g fill="none" stroke-opacity="1" stroke-width="1" font-family="MS Shell Dlg 2" font-size="32.0388" stroke-linecap="square" transform="matrix(0.999751,0,0,0.999751,286.844,231.232)" font-style="normal" stroke-linejoin="bevel" stroke="#000000" font-weight="400"/>
  <g fill="none" stroke-opacity="1" stroke-width="1" font-family="MS Shell Dlg 2" font-size="32.0388" stroke-linecap="square" transform="matrix(11.8081,0,0,11.8081,286.844,231.232)" font-style="normal" stroke-linejoin="bevel" stroke="#000000" font-weight="400"/>
  <g fill="#195987" stroke-opacity="1" stroke-width="1" font-family="MS Shell Dlg 2" font-size="32.0388" stroke-linecap="square" transform="matrix(0.999751,0,0,0.999751,339.981,388.279)" font-style="normal" fill-opacity="1" stroke-linejoin="bevel" stroke="#232323" font-weight="400">
   <path d="M22.811,11 C22.811,17.523 17.523,22.811 11,22.811 C4.47695,22.811 -0.811024,17.523 -0.811024,11 C-0.811024,4.47695 4.47695,-0.811024 11,-0.811024 C17.523,-0.811024 22.811,4.47695 22.811,11 " fill-rule="evenodd" vector-effect="non-scaling-stroke"/>
  </g>
  <g fill="none" stroke-opacity="1" stroke-width="1" font-family="MS Shell Dlg 2" font-size="32.0388" stroke-linecap="square" transform="matrix(11.8081,0,0,11.8081,286.844,231.232)" font-style="normal" stroke-linejoin="bevel" stroke="#000000" font-weight="400"/>
  <g fill="none" stroke-opacity="1" stroke-width="1" font-family="MS Shell Dlg 2" font-size="42" stroke-linecap="square" transform="matrix(1.18081,0,0,1.18081,286.844,231.232)" font-style="normal" stroke-linejoin="bevel" stroke="#000000" font-weight="400">
   <text fill="#000000" y="159.5" font-family="MS Shell Dlg 2" xml:space="preserve" x="110" font-size="42" font-style="normal" fill-opacity="1" stroke="none" font-weight="400">Central Business District</text>
  </g>
  <g fill="none" stroke-opacity="1" stroke-width="1" font-family="MS Shell Dlg 2" font-size="32.0388" stroke-linecap="square" transform="matrix(11.8081,0,0,11.8081,286.844,231.232)" font-style="normal" stroke-linejoin="bevel" stroke="#000000" font-weight="400"/>
  <g fill="none" stroke-opacity="1" stroke-width="1" font-family="MS Shell Dlg 2" font-size="42" stroke-linecap="square" transform="matrix(1.18081,0,0,1.18081,286.844,231.232)" font-style="normal" stroke-linejoin="bevel" stroke="#000000" font-weight="400">
   <text fill="#000000" y="235" font-family="MS Shell Dlg 2" xml:space="preserve" x="20" font-size="42" font-style="normal" fill-opacity="1" stroke="none" font-weight="400">% Hispanic</text>
  </g>
  <g fill="none" stroke-opacity="1" stroke-width="1" font-family="MS Shell Dlg 2" font-size="32.0388" stroke-linecap="square" transform="matrix(11.8081,0,0,11.8081,286.844,231.232)" font-style="normal" stroke-linejoin="bevel" stroke="#000000" font-weight="400"/>
  <g fill="#d7191c" stroke-opacity="1" stroke-width="3.07087" font-family="MS Shell Dlg 2" font-size="32.0388" stroke-linecap="square" transform="matrix(0.999751,0,0,0.999751,310.46,538.242)" font-style="normal" fill-opacity="1" stroke-linejoin="bevel" stroke="#232323" font-weight="400">
   <path d="M0,0 L82,0 L82,47 L0,47 L0,0" fill-rule="evenodd" vector-effect="none"/>
  </g>
  <g fill="none" stroke-opacity="1" stroke-width="1" font-family="MS Shell Dlg 2" font-size="32.0388" stroke-linecap="square" transform="matrix(11.8081,0,0,11.8081,286.844,231.232)" font-style="normal" stroke-linejoin="bevel" stroke="#000000" font-weight="400"/>
  <g fill="none" stroke-opacity="1" stroke-width="1" font-family="MS Shell Dlg 2" font-size="42" stroke-linecap="square" transform="matrix(1.18081,0,0,1.18081,286.844,231.232)" font-style="normal" stroke-linejoin="bevel" stroke="#000000" font-weight="400">
   <text fill="#000000" y="296.5" font-family="MS Shell Dlg 2" xml:space="preserve" x="110" font-size="42" font-style="normal" fill-opacity="1" stroke="none" font-weight="400">0.3% - 1.9%</text>
  </g>
  <g fill="none" stroke-opacity="1" stroke-width="1" font-family="MS Shell Dlg 2" font-size="32.0388" stroke-linecap="square" transform="matrix(11.8081,0,0,11.8081,286.844,231.232)" font-style="normal" stroke-linejoin="bevel" stroke="#000000" font-weight="400"/>
  <g fill="#fdae61" stroke-opacity="1" stroke-width="3.07087" font-family="MS Shell Dlg 2" font-size="32.0388" stroke-linecap="square" transform="matrix(0.999751,0,0,0.999751,310.46,614.994)" font-style="normal" fill-opacity="1" stroke-linejoin="bevel" stroke="#232323" font-weight="400">
   <path d="M0,0 L82,0 L82,47 L0,47 L0,0" fill-rule="evenodd" vector-effect="none"/>
  </g>
  <g fill="none" stroke-opacity="1" stroke-width="1" font-family="MS Shell Dlg 2" font-size="32.0388" stroke-linecap="square" transform="matrix(11.8081,0,0,11.8081,286.844,231.232)" font-style="normal" stroke-linejoin="bevel" stroke="#000000" font-weight="400"/>
  <g fill="none" stroke-opacity="1" stroke-width="1" font-family="MS Shell Dlg 2" font-size="42" stroke-linecap="square" transform="matrix(1.18081,0,0,1.18081,286.844,231.232)" font-style="normal" stroke-linejoin="bevel" stroke="#000000" font-weight="400">
   <text fill="#000000" y="361.5" font-family="MS Shell Dlg 2" xml:space="preserve" x="110" font-size="42" font-style="normal" fill-opacity="1" stroke="none" font-weight="400">1.9% - 3.6%</text>
  </g>
  <g fill="none" stroke-opacity="1" stroke-width="1" font-family="MS Shell Dlg 2" font-size="32.0388" stroke-linecap="square" transform="matrix(11.8081,0,0,11.8081,286.844,231.232)" font-style="normal" stroke-linejoin="bevel" stroke="#000000" font-weight="400"/>
  <g fill="#ffffc0" stroke-opacity="1" stroke-width="3.07087" font-family="MS Shell Dlg 2" font-size="32.0388" stroke-linecap="square" transform="matrix(0.999751,0,0,0.999751,310.46,691.747)" font-style="normal" fill-opacity="1" stroke-linejoin="bevel" stroke="#232323" font-weight="400">
   <path d="M0,0 L82,0 L82,47 L0,47 L0,0" fill-rule="evenodd" vector-effect="none"/>
  </g>
  <g fill="none" stroke-opacity="1" stroke-width="1" font-family="MS Shell Dlg 2" font-size="32.0388" stroke-linecap="square" transform="matrix(11.8081,0,0,11.8081,286.844,231.232)" font-style="normal" stroke-linejoin="bevel" stroke="#000000" font-weight="400"/>
  <g fill="none" stroke-opacity="1" stroke-width="1" font-family="MS Shell Dlg 2" font-size="42" stroke-linecap="square" transform="matrix(1.18081,0,0,1.18081,286.844,231.232)" font-style="normal" stroke-linejoin="bevel" stroke="#000000" font-weight="400">
   <text fill="#000000" y="426.5" font-family="MS Shell Dlg 2" xml:space="preserve" x="110" font-size="42" font-style="normal" fill-opacity="1" stroke="none" font-weight="400">3.6% - 5.2%</text>
  </g>
  <g fill="none" stroke-opacity="1" stroke-width="1" font-family="MS Shell Dlg 2" font-size="32.0388" stroke-linecap="square" transform="matrix(11.8081,0,0,11.8081,286.844,231.232)" font-style="normal" stroke-linejoin="bevel" stroke="#000000" font-weight="400"/>
  <g fill="#a6d96a" stroke-opacity="1" stroke-width="3.07087" font-family="MS Shell Dlg 2" font-size="32.0388" stroke-linecap="square" transform="matrix(0.999751,0,0,0.999751,310.46,768.499)" font-style="normal" fill-opacity="1" stroke-linejoin="bevel" stroke="#232323" font-weight="400">
   <path d="M0,0 L82,0 L82,47 L0,47 L0,0" fill-rule="evenodd" vector-effect="none"/>
  </g>
  <g fill="none" stroke-opacity="1" stroke-width="1" font-family="MS Shell Dlg 2" font-size="32.0388" stroke-linecap="square" transform="matrix(11.8081,0,0,11.8081,286.844,231.232)" font-style="normal" stroke-linejoin="bevel" stroke="#000000" font-weight="400"/>
  <g fill="none" stroke-opacity="1" stroke-width="1" font-family="MS Shell Dlg 2" font-size="42" stroke-linecap="square" transform="matrix(1.18081,0,0,1.18081,286.844,231.232)" font-style="normal" stroke-linejoin="bevel" stroke="#000000" font-weight="400">
   <text fill="#000000" y="491.5" font-family="MS Shell Dlg 2" xml:space="preserve" x="110" font-size="42" font-style="normal" fill-opacity="1" stroke="none" font-weight="400">5.2% - 6.9%</text>
  </g>
  <g fill="none" stroke-opacity="1" stroke-width="1" font-family="MS Shell Dlg 2" font-size="32.0388" stroke-linecap="square" transform="matrix(11.8081,0,0,11.8081,286.844,231.232)" font-style="normal" stroke-linejoin="bevel" stroke="#000000" font-weight="400"/>
  <g fill="#1a9641" stroke-opacity="1" stroke-width="3.07087" font-family="MS Shell Dlg 2" font-size="32.0388" stroke-linecap="square" transform="matrix(0.999751,0,0,0.999751,310.46,845.252)" font-style="normal" fill-opacity="1" stroke-linejoin="bevel" stroke="#232323" font-weight="400">
   <path d="M0,0 L82,0 L82,47 L0,47 L0,0" fill-rule="evenodd" vector-effect="none"/>
  </g>
  <g fill="none" stroke-opacity="1" stroke-width="1" font-family="MS Shell Dlg 2" font-size="32.0388" stroke-linecap="square" transform="matrix(11.8081,0,0,11.8081,286.844,231.232)" font-style="normal" stroke-linejoin="bevel" stroke="#000000" font-weight="400"/>
  <g fill="none" stroke-opacity="1" stroke-width="1" font-family="MS Shell Dlg 2" font-size="42" stroke-linecap="square" transform="matrix(1.18081,0,0,1.18081,286.844,231.232)" font-style="normal" stroke-linejoin="bevel" stroke="#000000" font-weight="400">
   <text fill="#000000" y="556.5" font-family="MS Shell Dlg 2" xml:space="preserve" x="110" font-size="42" font-style="normal" fill-opacity="1" stroke="none" font-weight="400">6.9% - 8.5%</text>
  </g>
  <g fill="none" stroke-opacity="1" stroke-width="1" font-family="MS Shell Dlg 2" font-size="32.0388" stroke-linecap="square" transform="matrix(11.8081,0,0,11.8081,286.844,231.232)" font-style="normal" stroke-linejoin="bevel" stroke="#000000" font-weight="400"/>
  <g fill="none" stroke-opacity="1" stroke-width="1" font-family="MS Shell Dlg 2" font-size="56" stroke-linecap="square" transform="matrix(1.18081,0,0,1.18081,286.844,231.232)" font-style="normal" stroke-linejoin="bevel" stroke="#000000" font-weight="400">
   <text fill="#000000" y="76" font-family="MS Shell Dlg 2" xml:space="preserve" x="198.5" font-size="56" font-style="normal" fill-opacity="1" stroke="none" font-weight="400">Legend</text>
  </g>
  <g fill="none" stroke-opacity="1" stroke-width="1" font-family="MS Shell Dlg 2" font-size="32.0388" stroke-linecap="square" transform="matrix(11.8081,0,0,11.8081,286.844,231.232)" font-style="normal" stroke-linejoin="bevel" stroke="#000000" font-weight="400"/>
  <g fill="none" stroke-opacity="1" stroke-width="1" font-family="MS Shell Dlg 2" font-size="32.0388" stroke-linecap="square" transform="matrix(0.999751,0,0,0.999751,286.844,231.232)" font-style="normal" stroke-linejoin="bevel" stroke="#000000" font-weight="400"/>
  <g fill="none" stroke-opacity="1" stroke-width="1" font-family="MS Shell Dlg 2" font-size="32.0388" stroke-linecap="square" transform="matrix(11.8081,0,0,11.8081,286.844,231.232)" font-style="normal" stroke-linejoin="bevel" stroke="#000000" font-weight="400"/>
  <g fill="none" stroke-opacity="1" stroke-width="1" font-family="MS Shell Dlg 2" font-size="32.0388" stroke-linecap="square" transform="matrix(11.8081,0,0,11.8081,286.844,231.232)" font-style="normal" stroke-linejoin="bevel" stroke="#000000" font-weight="400"/>
  <g fill="none" stroke-opacity="1" stroke-width="1" font-family="MS Shell Dlg 2" font-size="32.0388" stroke-linecap="square" transform="matrix(11.8081,0,0,11.8081,2340.13,188.791)" font-style="normal" stroke-linejoin="bevel" stroke="#000000" font-weight="400"/>
  <g fill="none" stroke-opacity="1" stroke-width="1" font-family="MS Shell Dlg 2" font-size="32.0388" stroke-linecap="square" transform="matrix(0.999751,0,0,0.999751,2340.13,188.791)" font-style="normal" stroke-linejoin="bevel" stroke="#000000" font-weight="400"/>
  <g fill="none" stroke-opacity="1" stroke-width="1" font-family="MS Shell Dlg 2" font-size="66.6667" stroke-linecap="square" transform="matrix(11.8081,0,0,11.8081,2340.13,188.791)" font-style="normal" stroke-linejoin="bevel" stroke="#000000" font-weight="400"/>
  <g fill="none" stroke-opacity="1" stroke-width="1" font-family="MS Shell Dlg 2" font-size="56" stroke-linecap="square" transform="matrix(1.18081,0,0,1.18081,2340.13,188.791)" font-style="normal" stroke-linejoin="bevel" stroke="#000000" font-weight="400">
   <text fill="#000000" y="227.813" font-family="MS Shell Dlg 2" xml:space="preserve" x="23.0156" font-size="56" font-style="normal" fill-opacity="1" stroke="none" font-weight="400">Percent Hispanic by Census Tract</text>
   <text fill="#000000" y="295.813" font-family="MS Shell Dlg 2" xml:space="preserve" x="218.016" font-size="56" font-style="normal" fill-opacity="1" stroke="none" font-weight="400">(Manchester, NH)</text>
  </g>
  <g fill="none" stroke-opacity="1" stroke-width="1" font-family="MS Shell Dlg 2" font-size="66.6667" stroke-linecap="square" transform="matrix(11.8081,0,0,11.8081,2340.13,188.791)" font-style="normal" stroke-linejoin="bevel" stroke="#000000" font-weight="400"/>
  <g fill="none" stroke-opacity="1" stroke-width="1" font-family="MS Shell Dlg 2" font-size="32.0388" stroke-linecap="square" transform="matrix(0.999751,0,0,0.999751,2340.13,188.791)" font-style="normal" stroke-linejoin="bevel" stroke="#000000" font-weight="400"/>
  <g fill="none" stroke-opacity="1" stroke-width="1" font-family="MS Shell Dlg 2" font-size="32.0388" stroke-linecap="square" transform="matrix(11.8081,0,0,11.8081,2340.13,188.791)" font-style="normal" stroke-linejoin="bevel" stroke="#000000" font-weight="400"/>
  <g fill="none" stroke-opacity="1" stroke-width="1" font-family="MS Shell Dlg 2" font-size="32.0388" stroke-linecap="square" transform="matrix(11.8081,0,0,11.8081,2340.13,188.791)" font-style="normal" stroke-linejoin="bevel" stroke="#000000" font-weight="400"/>
  <g fill="none" stroke-opacity="1" stroke-width="1" font-family="MS Shell Dlg 2" font-size="32.0388" stroke-linecap="square" transform="matrix(11.8081,0,0,11.8081,2479.63,2160.19)" font-style="normal" stroke-linejoin="bevel" stroke="#000000" font-weight="400"/>
  <g fill="none" stroke-opacity="1" stroke-width="1" font-family="MS Shell Dlg 2" font-size="32.0388" stroke-linecap="square" transform="matrix(0.999751,0,0,0.999751,2479.63,2160.19)" font-style="normal" stroke-linejoin="bevel" stroke="#000000" font-weight="400"/>
  <g fill="none" stroke-opacity="1" stroke-width="1" font-family="MS Shell Dlg 2" font-size="50" stroke-linecap="square" transform="matrix(11.8081,0,0,11.8081,2479.63,2160.19)" font-style="normal" stroke-linejoin="bevel" stroke="#000000" font-weight="400"/>
  <g fill="none" stroke-opacity="1" stroke-width="1" font-family="MS Shell Dlg 2" font-size="42" stroke-linecap="square" transform="matrix(1.18081,0,0,1.18081,2479.63,2160.19)" font-style="normal" stroke-linejoin="bevel" stroke="#000000" font-weight="400">
   <text fill="#000000" y="100.781" font-family="MS Shell Dlg 2" xml:space="preserve" x="250.016" font-size="42" font-style="normal" fill-opacity="1" stroke="none" font-weight="400">Marco van Gemeren</text>
   <text fill="#000000" y="151.781" font-family="MS Shell Dlg 2" xml:space="preserve" x="103.016" font-size="42" font-style="normal" fill-opacity="1" stroke="none" font-weight="400">GEOG 323 - Open Source GIScience</text>
   <text fill="#000000" y="202.781" font-family="MS Shell Dlg 2" xml:space="preserve" x="350.516" font-size="42" font-style="normal" fill-opacity="1" stroke="none" font-weight="400">Fall 2019</text>
  </g>
  <g fill="none" stroke-opacity="1" stroke-width="1" font-family="MS Shell Dlg 2" font-size="50" stroke-linecap="square" transform="matrix(11.8081,0,0,11.8081,2479.63,2160.19)" font-style="normal" stroke-linejoin="bevel" stroke="#000000" font-weight="400"/>
  <g fill="none" stroke-opacity="1" stroke-width="1" font-family="MS Shell Dlg 2" font-size="32.0388" stroke-linecap="square" transform="matrix(0.999751,0,0,0.999751,2479.63,2160.19)" font-style="normal" stroke-linejoin="bevel" stroke="#000000" font-weight="400"/>
  <g fill="none" stroke-opacity="1" stroke-width="1" font-family="MS Shell Dlg 2" font-size="32.0388" stroke-linecap="square" transform="matrix(11.8081,0,0,11.8081,2479.63,2160.19)" font-style="normal" stroke-linejoin="bevel" stroke="#000000" font-weight="400"/>
  <g fill="none" stroke-opacity="1" stroke-width="1" font-family="MS Shell Dlg 2" font-size="32.0388" stroke-linecap="square" transform="matrix(11.8081,0,0,11.8081,2479.63,2160.19)" font-style="normal" stroke-linejoin="bevel" stroke="#000000" font-weight="400"/>
  <g fill="none" stroke-opacity="1" stroke-width="1" font-family="MS Shell Dlg 2" font-size="32.0388" stroke-linecap="square" transform="matrix(1,0,0,1,0,0)" font-style="normal" stroke-linejoin="bevel" stroke="#000000" font-weight="400"/>
 </g>
 <metadata id="qgismetadata">
  <rdf:RDF>
   <cc:Work>
    <dc:format>image/svg+xml</dc:format>
    <dc:title></dc:title>
    <dc:date>2019-09-20T11:23:40</dc:date>
    <dc:identifier></dc:identifier>
    <dc:description></dc:description>
    <dc:creator>
     <cc:Agent>
      <dc:title>van Gemeren, Marco Dirk</dc:title>
     </cc:Agent>
    </dc:creator>
    <dc:publisher>
     <cc:Agent>
      <dc:title>QGIS 3.8.1-Zanzibar</dc:title>
     </cc:Agent>
    </dc:publisher>
    <dc:subject>
     <rdf:Bag/>
    </dc:subject>
   </cc:Work>
  </rdf:RDF>
 </metadata>
</svg>
